<svg width="31" height="32" viewBox="0 0 30.5 29" fill="black" xmlns="http://www.w3.org/2000/svg"><path d="M19.1346 22.2955C19.301 22.1136 19.4272 21.8987 19.505 21.6647C19.5828 21.4307 19.6103 21.183 19.5859 20.9377C19.5614 20.6923 19.4855 20.4549 19.3631 20.2409C19.2408 20.0269 19.0746 19.841 18.8756 19.6955C17.9456 18.7655 15.7646 18.9295 15.7646 18.9295C15.7646 18.9295 15.6006 21.1105 16.5306 22.0405C16.6764 22.2399 16.8626 22.4063 17.0772 22.5287C17.2917 22.6511 17.5297 22.7268 17.7755 22.7509C18.0213 22.775 18.2695 22.7468 18.5037 22.6684C18.7379 22.5899 18.9529 22.4628 19.1346 22.2955Z"></path><path d="M11.7366 19.6976C11.5284 19.8364 11.3536 20.0196 11.2248 20.2341C11.0961 20.4486 11.0165 20.689 10.9918 20.9379C10.9672 21.1869 10.9981 21.4382 11.0823 21.6738C11.1665 21.9094 11.302 22.1233 11.4789 22.3002C11.6558 22.4771 11.8697 22.6126 12.1053 22.6968C12.3409 22.7811 12.5922 22.8119 12.8412 22.7873C13.0902 22.7626 13.3306 22.6831 13.5451 22.5543C13.7596 22.4255 13.9428 22.2507 14.0816 22.0425C15.0116 21.1125 14.8486 18.9315 14.8486 18.9315C14.8486 18.9315 12.6676 18.7626 11.7366 19.6976Z"></path><path d="M28.1536 8.71356L18.0906 1.40555C17.2807 0.816998 16.3052 0.5 15.3041 0.5C14.3029 0.5 13.3275 0.816998 12.5176 1.40555L2.45358 8.72055C1.644 9.30924 1.04144 10.139 0.732127 11.091C0.422816 12.043 0.422616 13.0685 0.731578 14.0206L4.57958 25.8485C4.88846 26.8006 5.49075 27.6306 6.30018 28.2194C7.10961 28.8083 8.08463 29.1258 9.08558 29.1266H21.5306C22.532 29.1262 23.5076 28.809 24.3177 28.2204C25.1278 27.6318 25.7309 26.8019 26.0406 25.8495L29.8856 14.0146C30.1937 13.0613 30.1921 12.0349 29.881 11.0826C29.5698 10.1303 28.9651 9.30099 28.1536 8.71356ZM15.6826 13.2866C16.2085 12.5264 16.9531 11.9439 17.8176 11.6165C18.0331 11.534 18.2544 11.4671 18.4796 11.4166C18.939 11.3157 19.4109 11.2843 19.8796 11.3235C20.1151 11.345 20.349 11.3821 20.5796 11.4345C20.8119 11.4913 21.0401 11.5638 21.2626 11.6516C21.4861 11.7418 21.703 11.8478 21.9116 11.9686L21.9386 11.9846C22.1524 12.1195 22.3056 12.332 22.3663 12.5774C22.427 12.8228 22.3904 13.0822 22.2641 13.3013C22.1379 13.5203 21.9318 13.682 21.689 13.7525C21.4462 13.823 21.1855 13.7969 20.9616 13.6796C20.9184 13.6537 20.8769 13.625 20.8376 13.5936C20.3658 13.2161 19.7911 12.9899 19.1886 12.9445C19.0341 12.9331 18.879 12.9331 18.7246 12.9445C18.5674 12.9555 18.4112 12.9786 18.2576 13.0135C18.1027 13.0492 17.9509 13.0971 17.8036 13.1566C17.6553 13.2135 17.5118 13.2824 17.3746 13.3625C16.7966 13.6955 16.3308 14.193 16.0366 14.7916C15.9624 14.9456 15.8993 15.1046 15.8476 15.2675C15.7963 15.4312 15.7565 15.5983 15.7286 15.7675C15.7044 15.9251 15.6911 16.0842 15.6886 16.2436C15.9502 15.8636 16.269 15.5263 16.6336 15.2436C16.814 15.103 17.0053 14.977 17.2056 14.8665C17.4055 14.7552 17.6138 14.6596 17.8286 14.5806C18.0443 14.4986 18.2655 14.4318 18.4906 14.3806C18.95 14.2797 19.4219 14.2483 19.8906 14.2876C20.1235 14.3103 20.3547 14.3484 20.5826 14.4016C20.8149 14.4583 21.0431 14.5308 21.2656 14.6186C21.4891 14.7089 21.706 14.8148 21.9146 14.9355L21.9416 14.9516C22.1554 15.0865 22.3087 15.299 22.3693 15.5444C22.43 15.7898 22.3934 16.0492 22.2671 16.2683C22.1409 16.4873 21.9348 16.649 21.692 16.7195C21.4492 16.7901 21.1885 16.7639 20.9646 16.6465C20.9214 16.6207 20.8799 16.592 20.8406 16.5605C20.3688 16.1831 19.7941 15.9569 19.1916 15.9116C19.0371 15.9008 18.8821 15.9008 18.7276 15.9116C18.5704 15.9236 18.4144 15.947 18.2606 15.9816C18.1059 16.0179 17.9542 16.0657 17.8066 16.1245C17.6585 16.1824 17.5151 16.2516 17.3776 16.3315C16.8865 16.6141 16.4758 17.0176 16.1846 17.5035C18.1156 17.5925 20.8116 18.0596 21.7576 19.8816C22.0195 20.3253 22.1694 20.8262 22.1943 21.3409C22.2192 21.8556 22.1184 22.3686 21.9006 22.8355C21.5382 23.5713 20.9174 24.1478 20.1567 24.4546C19.3961 24.7614 18.549 24.777 17.7776 24.4986C16.8297 24.1089 15.9865 23.5023 15.3156 22.7276C14.6432 23.5015 13.7995 24.1079 12.8516 24.4986C12.0781 24.7776 11.2287 24.7609 10.4668 24.4517C9.7048 24.1425 9.08398 23.5627 8.72358 22.8235C8.50509 22.3567 8.40391 21.8436 8.42883 21.3288C8.45375 20.814 8.60403 20.3131 8.86659 19.8696C9.80959 18.0476 12.5066 17.5835 14.4396 17.4915C14.1476 17.0054 13.7363 16.602 13.2446 16.3195C13.107 16.2398 12.9636 16.1706 12.8156 16.1125C12.5194 15.9997 12.2086 15.9299 11.8926 15.9055C11.7384 15.8949 11.5837 15.8949 11.4296 15.9055C10.8268 15.9507 10.2516 16.1769 9.77958 16.5546C9.67436 16.6348 9.55393 16.6929 9.42559 16.7252C9.29726 16.7575 9.16369 16.7634 9.033 16.7425C8.90231 16.7217 8.77722 16.6745 8.66532 16.6038C8.55343 16.5331 8.45706 16.4405 8.38206 16.3314C8.30706 16.2224 8.255 16.0993 8.22903 15.9695C8.20306 15.8397 8.20372 15.706 8.23098 15.5765C8.25824 15.447 8.31153 15.3244 8.38761 15.2161C8.4637 15.1078 8.56099 15.0161 8.67358 14.9466L8.70459 14.9296C8.91322 14.8088 9.13009 14.7029 9.35359 14.6125C9.57606 14.5248 9.80426 14.4523 10.0366 14.3956C10.2672 14.3432 10.5011 14.3061 10.7366 14.2845C11.4363 14.2252 12.1404 14.323 12.7976 14.5706C13.225 14.7339 13.6259 14.9593 13.9876 15.2396C14.3516 15.5223 14.6697 15.8596 14.9306 16.2396C14.9281 16.0808 14.9147 15.9225 14.8906 15.7656C14.8633 15.5964 14.8242 15.4293 14.7736 15.2656C14.7209 15.1028 14.6574 14.9438 14.5836 14.7896C14.2894 14.1909 13.8236 13.6935 13.2456 13.3606C13.1083 13.2806 12.9648 13.2117 12.8166 13.1545C12.521 13.0399 12.2099 12.9701 11.8936 12.9475C11.7395 12.9361 11.5847 12.9361 11.4306 12.9475C10.8278 12.9927 10.2526 13.2189 9.78059 13.5966C9.67537 13.6768 9.55492 13.7349 9.42659 13.7672C9.29825 13.7995 9.16468 13.8054 9.03399 13.7845C8.9033 13.7637 8.77823 13.7165 8.66633 13.6458C8.55444 13.5751 8.45807 13.4825 8.38307 13.3734C8.30807 13.2644 8.25601 13.1412 8.23004 13.0115C8.20407 12.8817 8.20473 12.748 8.23199 12.6185C8.25925 12.489 8.31254 12.3664 8.38862 12.2581C8.4647 12.1498 8.56199 12.0581 8.67459 11.9886L8.70558 11.9716C8.9142 11.8508 9.13107 11.7448 9.35458 11.6545C9.57706 11.5668 9.80525 11.4943 10.0376 11.4376C10.2682 11.3852 10.5021 11.3481 10.7376 11.3266C11.2063 11.2873 11.6782 11.3187 12.1376 11.4196C12.3631 11.4703 12.5846 11.5372 12.8006 11.6196C13.015 11.6986 13.223 11.7942 13.4226 11.9055C14.026 12.2431 14.5437 12.715 14.9356 13.2845V13.1956C14.9342 13.0208 14.9205 12.8464 14.8946 12.6736C14.8673 12.5044 14.8282 12.3373 14.7776 12.1736C14.7249 12.0108 14.6614 11.8518 14.5876 11.6975C14.2933 11.099 13.8275 10.6015 13.2496 10.2686C12.6992 9.95323 12.0672 9.80942 11.4346 9.85556C10.8314 9.90051 10.2559 10.1267 9.78358 10.5045C9.58123 10.6656 9.32356 10.7404 9.06642 10.7128C8.80927 10.6852 8.57337 10.5574 8.40985 10.357C8.24632 10.1566 8.16833 9.89989 8.1928 9.64243C8.21728 9.38496 8.34223 9.14753 8.54058 8.98157C8.57819 8.95166 8.61797 8.92456 8.65959 8.90054L8.69058 8.88156C8.89951 8.76136 9.11634 8.65544 9.33958 8.56454C9.56205 8.47676 9.79024 8.40428 10.0226 8.34756C10.2532 8.29487 10.487 8.25746 10.7226 8.23557C11.1913 8.19634 11.6632 8.22768 12.1226 8.32855C12.3481 8.37932 12.5696 8.44617 12.7856 8.52856C13.0003 8.60699 13.2083 8.70262 13.4076 8.81454C14.2419 9.28002 14.9071 9.99813 15.3076 10.8656C15.7075 9.99941 16.3707 9.28161 17.2026 8.81454C17.4022 8.70262 17.6106 8.607 17.8256 8.52856C18.0411 8.44594 18.2624 8.37909 18.4876 8.32855C18.947 8.22768 19.4189 8.19634 19.8876 8.23557C20.1231 8.25739 20.357 8.29481 20.5876 8.34756C20.8199 8.40429 21.0481 8.47677 21.2706 8.56454C21.4938 8.65543 21.7107 8.76136 21.9196 8.88156L21.9466 8.89755C22.0634 8.95876 22.1667 9.04295 22.2501 9.14505C22.3336 9.24715 22.3956 9.36505 22.4324 9.4917C22.4692 9.61835 22.48 9.75112 22.4642 9.88205C22.4484 10.013 22.4063 10.1394 22.3404 10.2536C22.2745 10.3679 22.1863 10.4677 22.0809 10.547C21.9755 10.6263 21.8552 10.6835 21.7272 10.7151C21.5992 10.7468 21.4661 10.7522 21.3359 10.7312C21.2057 10.7101 21.0811 10.663 20.9696 10.5926C20.9261 10.5672 20.8846 10.5384 20.8456 10.5066C20.3738 10.1291 19.7991 9.90289 19.1966 9.85754C19.0421 9.84609 18.887 9.84609 18.7326 9.85754C18.5754 9.86853 18.4193 9.8916 18.2656 9.92654C18.1107 9.96222 17.9589 10.01 17.8116 10.0695C17.6635 10.1271 17.5201 10.196 17.3826 10.2755C16.8046 10.6085 16.3389 11.106 16.0446 11.7046C15.9704 11.8586 15.9073 12.0176 15.8556 12.1805C15.7504 12.5121 15.6964 12.8577 15.6956 13.2056C15.6921 13.2351 15.6921 13.265 15.6956 13.2946L15.6826 13.2866Z"></path></svg>