<svg xmlns="http://www.w3.org/2000/svg" width="1em" height="1em" fill="none" viewBox="0 0 70 70" class="h-[40px] w-[40px] lg:h-[70px] lg:w-[70px]"><circle cx="35" cy="35" r="35" fill="#000"/><path fill="#fff" d="M21.473 43.025h-8.26V26.701h8.26c5.385 0 8.796 2.997 8.796 8.162s-3.411 8.162-8.796 8.162m0-12.206h-3.679v8.089h3.68c2.899 0 3.898-.366 3.898-4.045s-1-4.044-3.899-4.044m18.292 15.447h-8.771v-3.24h8.77zm9.5-3.24h-8.26V26.7h8.26c5.384 0 8.795 2.997 8.795 8.162s-3.411 8.162-8.796 8.162m0-12.207h-3.68v8.089h3.68c2.899 0 3.898-.366 3.898-4.045s-1-4.044-3.899-4.044"/></svg>