<svg xmlns="http://www.w3.org/2000/svg" xmlns:xlink="http://www.w3.org/1999/xlink" viewBox="0 0 129 40"><path d="M 12.109 13.651 L 12.05 13.881 L 14.356 14.694 L 14.454 14.478 C 14.662 14.027 15.151 13.486 15.659 13.219 C 15.9 13.092 16.064 13.07 16.147 13.076 C 16.179 13.079 16.205 13.085 16.233 13.099 C 16.263 13.113 16.306 13.143 16.362 13.206 C 16.549 13.417 16.634 13.767 16.376 14.356 C 16.11 14.96 15.602 15.484 15.198 15.697 L 14.094 16.279 L 15.264 18.477 L 16.367 17.895 C 17.316 17.394 18.195 16.422 18.664 15.353 C 19.138 14.274 19.31 12.773 18.235 11.56 C 17.71 10.968 17.043 10.646 16.325 10.595 C 15.828 10.56 15.357 10.657 14.938 10.817 C 14.893 10.358 14.783 9.868 14.552 9.415 C 14.215 8.756 13.636 8.216 12.789 7.992 C 11.235 7.581 9.969 8.317 9.189 9.258 C 8.429 10.173 7.991 11.409 7.942 12.53 L 7.887 13.772 L 10.383 13.881 L 10.437 12.639 C 10.465 12.02 10.724 11.312 11.114 10.842 C 11.301 10.618 11.478 10.487 11.643 10.421 C 11.804 10.357 11.969 10.349 12.147 10.396 C 12.206 10.412 12.235 10.429 12.254 10.445 C 12.274 10.461 12.297 10.488 12.326 10.544 C 12.397 10.683 12.46 10.938 12.467 11.333 C 12.48 12.126 12.265 13.046 12.109 13.651 Z M 8.467 11.12 C 8.669 10.506 8.981 9.914 9.389 9.423 C 9.85 8.867 10.48 8.397 11.236 8.215 C 10.48 8.397 9.85 8.867 9.389 9.423 C 8.981 9.914 8.669 10.506 8.467 11.12 Z M 21.066 25.619 L 18.339 24.229 C 19.602 22.639 20.796 20.718 21.79 19.008 C 22.347 18.05 22.853 17.138 23.279 16.37 L 23.279 16.369 L 23.465 16.034 C 23.946 15.168 24.27 14.597 24.451 14.341 L 24.601 14.13 L 22.558 12.698 L 22.408 12.909 C 22.129 13.304 21.726 14.024 21.278 14.831 L 21.091 15.169 C 20.664 15.938 20.172 16.827 19.628 17.762 C 18.365 19.934 16.889 22.246 15.451 23.764 C 15.181 24.049 15.062 24.444 15.128 24.829 C 15.195 25.215 15.44 25.547 15.79 25.725 L 19.929 27.833 Z M 29.133 17.666 L 29.615 16.518 L 27.311 15.558 L 26.829 16.705 C 26.43 17.652 26.053 18.918 26.24 20.181 C 26.445 21.563 27.3 22.759 28.964 23.452 C 29.82 23.808 30.658 23.889 31.446 23.718 C 32.221 23.549 32.863 23.156 33.376 22.7 C 34.375 21.811 35.019 20.562 35.39 19.679 L 35.491 19.441 L 33.186 18.48 L 33.086 18.719 C 32.762 19.489 32.293 20.328 31.711 20.845 C 31.434 21.092 31.169 21.232 30.914 21.288 C 30.672 21.34 30.356 21.335 29.929 21.157 C 29.469 20.966 29.186 20.746 29.009 20.524 C 28.833 20.304 28.749 20.067 28.712 19.818 C 28.624 19.225 28.797 18.466 29.133 17.666 Z M 12.852 26.861 L 10.604 27.947 L 10.717 28.179 C 11.344 29.465 12.793 31.003 14.645 32.218 C 16.523 33.451 18.962 34.448 21.657 34.485 C 26.887 34.558 29.967 32.024 31.007 29.549 L 31.49 28.402 L 29.185 27.441 L 28.703 28.589 C 28.111 29.996 26.053 32.058 21.691 31.998 C 19.589 31.969 17.609 31.184 16.019 30.141 C 14.403 29.081 13.333 27.849 12.965 27.093 Z M 30.458 12.416 L 30.201 12.45 L 30.509 14.749 L 30.763 14.718 C 31.239 14.661 31.575 14.694 31.797 14.787 C 31.905 14.832 31.999 14.895 32.081 14.977 L 32.36 15.277 C 32.616 15.596 32.892 15.831 33.192 15.957 C 33.745 16.187 34.557 16.214 35.588 16.082 L 35.847 16.049 L 35.539 13.75 L 35.286 13.779 C 34.749 13.841 34.396 13.809 34.188 13.723 C 34.062 13.67 33.892 13.525 33.686 13.234 L 33.685 13.233 L 33.685 13.232 C 33.575 13.08 33.469 12.954 33.364 12.863 C 33.214 12.727 33.044 12.619 32.855 12.541 C 32.291 12.306 31.48 12.278 30.458 12.416 Z M 20.409 39.843 C 33.043 40.018 41.251 30.699 41.396 20.349 C 41.468 15.16 39.025 10.132 35.243 6.388 C 31.46 2.643 26.319 0.162 20.964 0.088 C 10.294 -0.059 0.294 8.09 0.149 18.472 C 0.005 28.798 7.753 39.668 20.409 39.843 Z M 38.898 20.314 C 38.772 29.335 31.654 37.511 20.444 37.356 C 9.432 37.204 2.518 27.739 2.647 18.507 C 2.769 9.762 11.357 2.443 20.929 2.575 C 25.539 2.639 30.085 4.789 33.482 8.152 C 36.88 11.517 38.959 15.924 38.898 20.314 Z" fill="rgb(30,30,30)"></path><path d="M 86.68 32.909 C 84.621 34.96 82.118 35.985 79.171 35.985 C 76.844 35.985 74.952 35.285 73.495 33.885 C 72.088 32.551 71.243 30.734 70.958 28.433 C 69.82 29.467 68.631 29.983 67.392 29.983 C 66.923 29.983 66.505 29.883 66.136 29.683 C 65.852 29.533 65.609 29.325 65.408 29.058 C 64.939 28.425 64.788 27.483 64.956 26.232 C 65.056 25.432 65.374 24.132 65.91 22.331 L 66.061 21.781 L 66.237 21.181 C 66.371 20.697 66.48 20.281 66.563 19.931 C 66.781 18.964 66.865 18.313 66.814 17.98 C 65.592 18.047 64.244 19.172 62.771 21.356 C 61.281 23.557 60.142 26.116 59.355 29.033 L 57.798 28.608 C 56.743 29.525 55.714 29.983 54.709 29.983 C 53.755 29.983 52.976 29.592 52.373 28.808 C 51.318 27.441 51.185 25.291 51.971 22.356 L 53.152 17.98 L 50.213 17.98 L 50.213 15.404 L 53.855 15.404 L 55.211 10.353 L 57.723 11.028 L 56.542 15.404 L 60.335 15.404 L 63.298 4.426 L 65.81 5.101 L 62.419 17.655 C 63.926 16.154 65.425 15.404 66.915 15.404 C 67.384 15.404 67.802 15.504 68.171 15.704 C 68.438 15.854 68.673 16.054 68.874 16.304 C 69.359 16.938 69.518 17.888 69.351 19.155 C 69.25 19.906 68.932 21.206 68.397 23.056 L 68.246 23.607 L 68.07 24.182 C 67.936 24.665 67.827 25.082 67.744 25.432 C 67.509 26.399 67.417 27.058 67.467 27.408 C 68.187 27.374 68.899 26.941 69.602 26.107 C 70.406 25.19 71.025 23.94 71.461 22.356 C 71.963 20.456 72.85 18.863 74.123 17.58 C 75.546 16.129 77.17 15.404 78.995 15.404 C 80.016 15.404 80.854 15.729 81.507 16.379 C 82.159 17.03 82.503 17.872 82.536 18.905 C 82.57 20.672 81.816 22.248 80.276 23.632 C 78.568 25.182 76.291 26.066 73.445 26.282 C 73.361 28.466 73.813 30.2 74.801 31.484 C 75.789 32.768 77.245 33.409 79.171 33.409 C 81.381 33.409 83.265 32.634 84.822 31.084 Z M 54.709 27.408 C 54.893 27.408 55.128 27.324 55.412 27.158 C 55.764 26.958 56.107 26.683 56.442 26.332 C 57.329 25.366 58.007 24.04 58.476 22.356 L 59.657 17.98 L 55.839 17.98 L 54.483 23.031 C 54.198 24.115 54.064 25.049 54.081 25.832 C 54.098 26.499 54.215 26.974 54.433 27.258 C 54.516 27.358 54.609 27.408 54.709 27.408 Z M 78.995 17.98 C 77.823 17.98 76.752 18.522 75.78 19.605 C 74.943 20.539 74.341 21.681 73.972 23.031 L 73.872 23.332 L 73.796 23.657 C 75.772 23.407 77.337 22.773 78.493 21.756 C 79.481 20.872 79.958 19.947 79.924 18.98 C 79.908 18.547 79.782 18.255 79.548 18.105 C 79.447 18.055 79.338 18.022 79.221 18.005 L 79.096 17.98 Z" fill="rgb(30,30,30)"></path><path d="M 109.876 27.738 C 109.663 27.986 109.44 28.218 109.207 28.433 C 108.085 29.467 106.896 29.983 105.64 29.983 C 105.172 29.983 104.753 29.883 104.385 29.683 C 104.117 29.533 103.882 29.325 103.682 29.058 C 103.196 28.425 103.037 27.483 103.204 26.232 C 103.305 25.482 103.623 24.182 104.159 22.331 C 104.527 21.031 104.778 19.997 104.912 19.23 C 105.013 18.63 105.029 18.213 104.962 17.98 C 103.908 18.013 102.811 18.997 101.672 20.931 C 100.534 22.881 99.513 25.516 98.608 28.833 L 98.558 29.033 L 96.046 28.358 C 96.08 28.258 96.097 28.191 96.097 28.158 L 97.679 22.331 C 98.064 21.031 98.315 19.997 98.433 19.23 C 98.516 18.63 98.524 18.213 98.458 17.98 C 97.403 18.013 96.306 19.014 95.168 20.981 C 94.012 22.965 92.983 25.649 92.078 29.033 L 89.567 28.358 L 92.807 16.354 L 94.992 16.93 C 96.08 15.913 97.252 15.404 98.508 15.404 C 99.847 15.404 100.676 16.079 100.994 17.43 C 102.233 16.079 103.564 15.404 104.987 15.404 C 105.858 15.404 106.528 15.713 106.997 16.329 C 107.449 16.946 107.633 17.822 107.549 18.955 C 107.465 19.889 107.164 21.256 106.645 23.056 L 106.494 23.607 L 106.319 24.182 C 106.185 24.665 106.084 25.082 106.017 25.432 C 105.783 26.399 105.691 27.058 105.741 27.408 C 106.444 27.374 107.156 26.941 107.876 26.107 C 108.679 25.19 109.291 23.94 109.709 22.356 L 109.716 22.358 L 109.717 22.356 L 111.324 16.354 L 113.836 17.03 L 112.228 23.031 C 112.027 23.782 111.927 24.49 111.927 25.157 C 111.927 26.658 112.538 27.408 113.76 27.408 C 115.719 27.408 117.151 25.741 118.055 22.406 L 118.055 22.356 L 119.687 16.354 L 122.174 17.03 L 120.566 23.031 C 120.298 24.048 120.164 24.857 120.164 25.457 C 120.164 25.607 120.173 25.774 120.19 25.957 C 120.206 26.207 120.24 26.424 120.29 26.607 C 120.407 27.141 120.6 27.408 120.868 27.408 C 121.035 27.408 121.253 27.324 121.521 27.158 C 121.856 26.958 122.191 26.683 122.525 26.332 C 123.429 25.349 124.108 24.023 124.56 22.356 L 127.071 23.031 C 126.485 25.182 125.556 26.908 124.283 28.208 C 123.128 29.392 121.973 29.983 120.818 29.983 C 120.198 29.983 119.637 29.8 119.135 29.433 C 118.616 29.083 118.256 28.633 118.055 28.083 C 116.866 29.35 115.435 29.983 113.76 29.983 C 112.337 29.983 111.232 29.517 110.445 28.583 C 110.222 28.327 110.033 28.045 109.876 27.738 Z" fill="rgb(30, 30, 30)"></path><path d="M 112.636 11.958 C 113.892 11.225 114.905 10.858 115.675 10.858 C 115.926 10.858 116.169 10.9 116.404 10.983 C 116.554 11.033 116.738 11.125 116.956 11.258 C 117.408 11.542 117.785 11.683 118.086 11.683 C 118.505 11.683 119.057 11.492 119.744 11.108 L 121.05 13.334 C 119.777 14.067 118.764 14.434 118.011 14.434 C 117.626 14.434 117.19 14.301 116.705 14.034 L 116.152 13.784 C 115.951 13.701 115.742 13.659 115.524 13.659 C 115.089 13.659 114.562 13.834 113.942 14.184 Z" fill="rgb(30, 30, 30)"></path></svg>