<svg width="70" height="27" viewBox="0 0 70 27" fill="none" xmlns="http://www.w3.org/2000/svg"><path fill-rule="evenodd" clip-rule="evenodd" d="M0 24.033c0 .953 1.168 1.413 1.818.715l7.46-8.006a1.05 1.05 0 0 1 1.522-.015l7.869 8.113c.657.677 1.803.212 1.803-.731V1.351c0-.58-.47-1.05-1.05-1.05H1.05A1.05 1.05 0 0 0 0 1.35z" fill="#E4212A"/><path fill-rule="evenodd" clip-rule="evenodd" d="M25.12 25.352a1.05 1.05 0 0 1-.804-1.725l8.027-9.568a1.05 1.05 0 0 0 .028-1.315L24.169 2.077A1.05 1.05 0 0 1 25 .387h16.328c.58 0 1.05.47 1.05 1.05v22.865c0 .58-.47 1.05-1.05 1.05z" fill="#0C6E5F"/><path d="m45.983 5.933 2.586-4.338A2.1 2.1 0 0 1 50.372.57h8.626a2.1 2.1 0 0 1 1.444.576l7.197 6.82a2.1 2.1 0 0 1 .499.73l.505 1.234a2.1 2.1 0 0 1-.607 2.415l-1.532 1.265a2.1 2.1 0 0 0-.68 1.036l-1.582 5.473q-.06.21-.163.403l-1.69 3.177a2.1 2.1 0 0 1-1.853 1.115h-1.548a2.1 2.1 0 0 1-2.078-1.799l-1.061-7.321a2.1 2.1 0 0 0-.421-.988l-1.973-2.535a2.1 2.1 0 0 0-1.657-.81h-2.284a2.1 2.1 0 0 1-1.666-.822l-1.727-2.253a2.1 2.1 0 0 1-.138-2.353" fill="#EC9120"/></svg>