<svg width="127" height="27" viewBox="0 0 127 27" fill="none" xmlns="http://www.w3.org/2000/svg">
  <path
    d="M76.926 10.997a.52.52 0 0 1-.339-.122.65.65 0 0 1-.19-.311L73.622 1.18q-.094-.324.027-.541.135-.217.42-.217.162 0 .298.095.149.081.216.311l2.505 8.72h-.311l2.369-8.49a.43.43 0 0 1 .176-.243.6.6 0 0 1 .325-.095q.162 0 .311.095.15.081.19.257l2.383 8.475h-.312L84.737.775q.096-.352.515-.352.284 0 .393.23.107.217.027.528l-2.762 9.37a.7.7 0 0 1-.217.338.5.5 0 0 1-.325.108.52.52 0 0 1-.338-.122.65.65 0 0 1-.19-.311l-2.356-8.597h.325l-2.342 8.583a.7.7 0 0 1-.217.325.47.47 0 0 1-.325.122m10.972 0a.5.5 0 0 1-.379-.149.5.5 0 0 1-.148-.379V.951q0-.23.148-.379.15-.15.38-.149h6.35q.216 0 .365.15.162.135.162.365a.46.46 0 0 1-.162.352q-.15.149-.366.149h-5.821v3.736h4.237q.23 0 .38.15.148.148.148.365 0 .216-.149.365-.148.15-.379.15h-4.237v3.777h5.821q.217 0 .366.149.162.148.162.352 0 .23-.162.379a.52.52 0 0 1-.366.135zm9.442 0a.7.7 0 0 1-.433-.135.5.5 0 0 1-.162-.393V.951q0-.23.148-.379.15-.15.38-.149h3.29a3 3 0 0 1 1.462.352q.663.339 1.042.934.393.596.393 1.381 0 .732-.393 1.3a2.5 2.5 0 0 1-1.029.867q.907.243 1.463.92.555.664.555 1.693 0 .92-.42 1.624a3 3 0 0 1-1.164 1.11q-.731.393-1.679.393zm.46-1.015h2.993q.65 0 1.151-.258a1.9 1.9 0 0 0 .785-.73q.284-.475.284-1.124a1.93 1.93 0 0 0-.284-1.056 1.86 1.86 0 0 0-.785-.705 2.5 2.5 0 0 0-1.151-.257H97.8zm0-5.145h2.763q.812 0 1.34-.46t.528-1.287q0-.812-.528-1.232t-1.34-.42H97.8zm11.066 6.228q-.948 0-1.706-.406a3.09 3.09 0 0 1-1.611-2.762.6.6 0 0 1 .136-.393.45.45 0 0 1 .365-.162q.23 0 .366.162.135.163.135.393 0 .623.298 1.123.297.488.812.786.528.284 1.165.284 1.056 0 1.651-.582.597-.595.596-1.53 0-.663-.284-1.15a2 2 0 0 0-.772-.773 2.13 2.13 0 0 0-1.097-.284.5.5 0 0 1-.365-.149.52.52 0 0 1-.149-.379q0-.216.149-.366a.5.5 0 0 1 .365-.148q.474 0 .867-.23a1.9 1.9 0 0 0 .65-.637q.243-.393.243-.866 0-.718-.487-1.192-.487-.487-1.3-.487-.568 0-1.015.23a1.75 1.75 0 0 0-.704.596 1.47 1.47 0 0 0-.244.839.56.56 0 0 1-.149.393.45.45 0 0 1-.352.149.47.47 0 0 1-.365-.15.57.57 0 0 1-.136-.378q0-.746.379-1.34a2.7 2.7 0 0 1 1.056-.949q.665-.352 1.53-.352.786 0 1.408.352.638.339 1.002.948.38.596.379 1.34 0 .46-.23.894a2.9 2.9 0 0 1-.582.785 2.9 2.9 0 0 1-.799.528q.691.203 1.151.623t.677.989q.217.555.217 1.164 0 .894-.434 1.597-.42.69-1.164 1.097a3.5 3.5 0 0 1-1.652.393M74.082 24.997q-.31 0-.447-.257a.55.55 0 0 1-.027-.501l3.98-9.45q.15-.366.515-.366.353 0 .501.366l3.994 9.463a.48.48 0 0 1-.04.501.48.48 0 0 1-.434.244.57.57 0 0 1-.297-.081.6.6 0 0 1-.203-.244l-3.724-9.03h.42l-3.75 9.03a.5.5 0 0 1-.203.244.5.5 0 0 1-.285.081m.894-2.518.406-.907h5.497l.406.907zm8.897 2.518a.54.54 0 0 1-.38-.149.54.54 0 0 1-.148-.379v-9.518q0-.23.148-.379.15-.15.38-.149h6.35q.23 0 .379.15.148.134.148.365 0 .202-.148.352-.15.149-.38.149h-5.821v3.736h4.237q.23 0 .38.15.148.148.148.365 0 .216-.149.365-.148.15-.379.15h-4.237v4.264q0 .215-.15.38-.148.147-.378.148m9.3 0a.5.5 0 0 1-.378-.149.5.5 0 0 1-.15-.379v-9.518q0-.23.15-.379.149-.15.379-.149h2.532q.988 0 1.76.42.771.406 1.205 1.15.447.732.447 1.693 0 .921-.447 1.638-.434.718-1.205 1.124-.772.405-1.76.406h-2.004v3.615q0 .23-.149.38-.15.147-.38.148m5.66 0a.53.53 0 0 1-.284-.068.7.7 0 0 1-.176-.203l-2.6-4.143 1.056-.27 2.424 3.872q.203.325.068.568-.123.244-.488.244m-5.131-5.158h2.004q.69 0 1.218-.271.542-.285.853-.772.312-.487.312-1.11a2.16 2.16 0 0 0-1.165-1.963 2.5 2.5 0 0 0-1.218-.284h-2.004zm7.841 5.158a.5.5 0 0 1-.379-.149.5.5 0 0 1-.149-.379v-9.518q0-.23.149-.379a.5.5 0 0 1 .379-.149.51.51 0 0 1 .528.528v9.518a.51.51 0 0 1-.528.528m3.768 0a.55.55 0 0 1-.379-.149.55.55 0 0 1-.149-.379v-9.518q0-.216.149-.365a.52.52 0 0 1 .379-.163q.218 0 .366.163.162.148.162.365v4.603l4.942-4.941a.7.7 0 0 1 .203-.15.6.6 0 0 1 .217-.04q.243 0 .365.15.123.147.109.365a.6.6 0 0 1-.163.392l-3.709 3.71 3.75 5.118a.53.53 0 0 1 .095.379.5.5 0 0 1-.149.325.45.45 0 0 1-.325.135.5.5 0 0 1-.447-.23l-3.683-4.982-1.205 1.218v3.466a.52.52 0 0 1-.162.38.5.5 0 0 1-.366.148m7.762 0q-.312 0-.447-.257a.55.55 0 0 1-.027-.501l3.981-9.45q.148-.366.514-.366.352 0 .501.366l3.994 9.463a.48.48 0 0 1-.041.501.48.48 0 0 1-.433.244.57.57 0 0 1-.298-.081.6.6 0 0 1-.203-.244l-3.723-9.03h.42l-3.751 9.03a.5.5 0 0 1-.203.244.5.5 0 0 1-.284.081m.893-2.518.407-.907h5.496l.407.907z"
    fill="#fff" />
  <path fill-rule="evenodd" clip-rule="evenodd"
    d="M0 24.033c0 .953 1.168 1.413 1.818.715l7.46-8.006a1.05 1.05 0 0 1 1.522-.015l7.869 8.113c.657.677 1.803.212 1.803-.73V1.35c0-.58-.47-1.05-1.05-1.05H1.05C.47.3 0 .77 0 1.35z"
    fill="#E4212A" />
  <path fill-rule="evenodd" clip-rule="evenodd"
    d="M25.12 25.353a1.05 1.05 0 0 1-.804-1.725l8.027-9.569a1.05 1.05 0 0 0 .028-1.314L24.169 2.078A1.05 1.05 0 0 1 25 .388h16.328c.58 0 1.05.47 1.05 1.05v22.865c0 .58-.47 1.05-1.05 1.05z"
    fill="#0C6E5F" />
  <path
    d="m45.983 5.934 2.586-4.339A2.1 2.1 0 0 1 50.372.57h8.626a2.1 2.1 0 0 1 1.444.576l7.197 6.821a2.1 2.1 0 0 1 .499.729l.505 1.234a2.1 2.1 0 0 1-.607 2.415l-1.532 1.265c-.326.27-.563.63-.68 1.037l-1.582 5.473q-.06.21-.163.402l-1.69 3.178a2.1 2.1 0 0 1-1.853 1.114h-1.548a2.1 2.1 0 0 1-2.078-1.799l-1.061-7.32a2.1 2.1 0 0 0-.421-.989l-1.973-2.535a2.1 2.1 0 0 0-1.657-.81h-2.284a2.1 2.1 0 0 1-1.666-.822l-1.727-2.252a2.1 2.1 0 0 1-.138-2.353"
    fill="#EC9120" />
</svg>