<svg width="139" height="29" viewBox="0 0 139 29" fill="none" xmlns="http://www.w3.org/2000/svg">
  <path
    d="M84.193 11.762a.57.57 0 0 1-.37-.133.7.7 0 0 1-.207-.341l-3.038-10.27q-.105-.355.03-.592.147-.237.459-.237.177 0 .326.104.163.089.237.34l2.741 9.543h-.34l2.593-9.29a.47.47 0 0 1 .192-.267.65.65 0 0 1 .356-.104q.177 0 .34.104.164.089.208.281l2.608 9.276h-.34L92.742.574q.104-.385.564-.385.31 0 .43.252.117.236.029.578l-3.023 10.254a.76.76 0 0 1-.237.37.55.55 0 0 1-.356.119.57.57 0 0 1-.37-.133.7.7 0 0 1-.208-.341l-2.578-9.41h.356l-2.564 9.395a.76.76 0 0 1-.237.356.5.5 0 0 1-.356.133m12.01 0a.56.56 0 0 1-.415-.163.56.56 0 0 1-.163-.415V.767q0-.252.163-.415a.56.56 0 0 1 .415-.163h6.95q.237 0 .4.163a.5.5 0 0 1 .178.4.5.5 0 0 1-.178.385.54.54 0 0 1-.4.163H96.78v4.09h4.638q.252 0 .415.163a.54.54 0 0 1 .163.4.54.54 0 0 1-.163.4.56.56 0 0 1-.415.163H96.78v4.135h6.372q.237 0 .4.163a.5.5 0 0 1 .178.385.54.54 0 0 1-.178.415.57.57 0 0 1-.4.148zm10.334 0a.76.76 0 0 1-.474-.148.55.55 0 0 1-.178-.43V.767q0-.252.163-.415a.56.56 0 0 1 .415-.163h3.601q.89 0 1.6.385a2.86 2.86 0 0 1 1.141 1.023q.43.651.43 1.511a2.44 2.44 0 0 1-.43 1.423 2.77 2.77 0 0 1-1.126.948q.992.267 1.601 1.008.607.726.607 1.852 0 1.008-.459 1.778a3.3 3.3 0 0 1-1.275 1.215q-.8.43-1.837.43zm.504-1.111h3.275q.711 0 1.259-.282a2.1 2.1 0 0 0 .86-.8q.31-.519.311-1.23 0-.667-.311-1.156a2.03 2.03 0 0 0-.86-.77 2.7 2.7 0 0 0-1.259-.282h-3.275zm0-5.631h3.023q.89 0 1.467-.504t.578-1.408q0-.89-.578-1.348-.578-.46-1.467-.46h-3.023zm12.111 6.816q-1.037 0-1.867-.444a3.47 3.47 0 0 1-1.289-1.245 3.37 3.37 0 0 1-.474-1.778q0-.252.148-.43a.5.5 0 0 1 .4-.178q.252 0 .4.178a.65.65 0 0 1 .148.43q0 .681.326 1.23.327.533.889.859.578.31 1.275.311 1.155 0 1.808-.637.651-.653.652-1.674 0-.727-.312-1.26a2.17 2.17 0 0 0-.844-.845 2.34 2.34 0 0 0-1.201-.31.54.54 0 0 1-.4-.164.56.56 0 0 1-.163-.415q0-.237.163-.4a.54.54 0 0 1 .4-.163q.519 0 .949-.252.444-.267.711-.696.267-.43.267-.949 0-.785-.534-1.304-.532-.533-1.422-.533-.623 0-1.112.252a1.9 1.9 0 0 0-.77.652 1.6 1.6 0 0 0-.267.919.6.6 0 0 1-.163.43.5.5 0 0 1-.385.162.51.51 0 0 1-.4-.163.63.63 0 0 1-.148-.415q0-.814.415-1.467.429-.666 1.155-1.037.727-.385 1.675-.385.859 0 1.541.385.696.37 1.096 1.037.415.653.415 1.467 0 .504-.252.978-.237.475-.637.86-.4.37-.874.578.756.222 1.26.681.503.46.74 1.082.238.608.238 1.274a3.27 3.27 0 0 1-.475 1.749 3.3 3.3 0 0 1-1.274 1.2 3.8 3.8 0 0 1-1.808.43m-38.07 14.926q-.341 0-.49-.282a.6.6 0 0 1-.03-.548L84.92 15.59q.162-.4.563-.4.385 0 .548.4l4.371 10.358a.53.53 0 0 1-.044.548.52.52 0 0 1-.474.267.6.6 0 0 1-.326-.089.7.7 0 0 1-.223-.267l-4.075-9.883h.46l-4.105 9.883a.54.54 0 0 1-.222.267.55.55 0 0 1-.311.089m.978-2.756.444-.993h6.016l.445.993zm9.737 2.756a.6.6 0 0 1-.415-.163.6.6 0 0 1-.163-.415V15.767q0-.252.163-.415a.56.56 0 0 1 .415-.163h6.95q.252 0 .415.163a.51.51 0 0 1 .163.4.53.53 0 0 1-.163.385.56.56 0 0 1-.415.163h-6.372v4.09h4.638q.252 0 .415.163a.54.54 0 0 1 .163.4.54.54 0 0 1-.163.4.56.56 0 0 1-.415.163h-4.638v4.668a.6.6 0 0 1-.163.415.56.56 0 0 1-.415.163m10.18 0a.56.56 0 0 1-.415-.163.56.56 0 0 1-.163-.415V15.767q0-.252.163-.415a.56.56 0 0 1 .415-.163h2.771q1.081 0 1.927.46a3.24 3.24 0 0 1 1.318 1.259q.489.8.489 1.852 0 1.008-.489 1.793a3.3 3.3 0 0 1-1.318 1.23q-.846.444-1.927.445h-2.193v3.956a.56.56 0 0 1-.163.415.56.56 0 0 1-.415.163m6.194 0a.6.6 0 0 1-.311-.074.7.7 0 0 1-.193-.222l-2.845-4.535 1.156-.296 2.653 4.238q.221.355.074.622-.133.267-.534.267m-5.616-5.646h2.193q.756 0 1.334-.296.593-.312.933-.845t.341-1.215q0-.726-.341-1.274a2.34 2.34 0 0 0-.933-.875q-.578-.31-1.334-.31h-2.193zm8.582 5.646a.56.56 0 0 1-.415-.163.56.56 0 0 1-.163-.415V15.767q0-.252.163-.415a.56.56 0 0 1 .415-.163q.252 0 .415.163a.56.56 0 0 1 .163.415v10.417a.56.56 0 0 1-.163.415.56.56 0 0 1-.415.163m4.124 0a.6.6 0 0 1-.414-.163.6.6 0 0 1-.163-.415V15.767q0-.238.163-.4a.57.57 0 0 1 .414-.178q.238 0 .401.178a.52.52 0 0 1 .177.4v5.038l5.409-5.409a.7.7 0 0 1 .222-.163.6.6 0 0 1 .237-.044q.267 0 .4.163a.55.55 0 0 1 .119.4.65.65 0 0 1-.178.43l-4.06 4.06 4.105 5.601a.57.57 0 0 1 .103.415.54.54 0 0 1-.163.356.48.48 0 0 1-.355.148.54.54 0 0 1-.489-.252l-4.031-5.453-1.319 1.334v3.793a.57.57 0 0 1-.177.415.55.55 0 0 1-.401.163m8.495 0q-.34 0-.489-.282a.6.6 0 0 1-.029-.548l4.356-10.343q.164-.4.563-.4.386 0 .549.4l4.371 10.358a.53.53 0 0 1-.044.548.52.52 0 0 1-.475.267.6.6 0 0 1-.326-.089.67.67 0 0 1-.222-.267l-4.075-9.883h.459l-4.104 9.883a.55.55 0 0 1-.222.267.55.55 0 0 1-.312.089m.978-2.756.445-.993h6.016l.445.993z"
    fill="#000" />
  <path fill-rule="evenodd" clip-rule="evenodd"
    d="M0 25.974c0 1.044 1.278 1.547 1.99.784l8.165-8.763a1.15 1.15 0 0 1 1.665-.017l8.613 8.88c.719.74 1.974.232 1.974-.8V1.149A1.15 1.15 0 0 0 21.257 0H1.15A1.15 1.15 0 0 0 0 1.15z"
    fill="#E4212A" />
  <path fill-rule="evenodd" clip-rule="evenodd"
    d="M27.494 27.419c-.976 0-1.508-1.14-.88-1.888l8.784-10.473a1.15 1.15 0 0 0 .031-1.438L26.452 1.944a1.15 1.15 0 0 1 .91-1.85h17.872a1.15 1.15 0 0 1 1.149 1.15v25.025a1.15 1.15 0 0 1-1.15 1.15z"
    fill="#0C6E5F" />
  <path
    d="m50.329 6.165 2.83-4.749A2.3 2.3 0 0 1 55.133.295h9.44c.588 0 1.154.225 1.581.63L74.03 8.39c.237.225.423.496.546.798l.553 1.351a2.3 2.3 0 0 1-.663 2.643l-1.678 1.385c-.356.294-.616.69-.744 1.134l-1.732 5.99q-.066.23-.178.44l-1.848 3.479a2.3 2.3 0 0 1-2.03 1.22h-1.693a2.3 2.3 0 0 1-2.275-1.97l-1.162-8.012a2.3 2.3 0 0 0-.46-1.082l-2.16-2.774a2.3 2.3 0 0 0-1.813-.887h-2.5a2.3 2.3 0 0 1-1.823-.9L50.479 8.74a2.3 2.3 0 0 1-.15-2.575"
    fill="#EC9120" />
</svg>